# xmcd
#
# Track frame offsets:
#	150
#	16817
#	30202
#	45966
#	59795
#	77825
#	98427
#	112091
#	127666
#	148145
#	166284
#	181297
#	198892
#	213070
#	226282
#	241737
#	256198
#	267472
#
# Disc length: 3802
#
# Revision: 1
# Processed by: cddbd v1.5.1PL0 Copyright (c) Steve Scherf et al.
# Submitted via: VisiTrax 2.9.5.180 - For more info visit www.synapsa.com
# Normalized: r0:DSETVAR1
#
DISCID=e00ed812
DTITLE=Various Artist - CDX 199 October 1998
DYEAR=1998
DGENRE=
TTITLE0=Charlie Robison - Barlight
TTITLE1=Ken Mellons - Bundle of nerves
TTITLE2=Ricochet - Can't stop thinkin' 'bout that
TTITLE3=Earl Thomas Conley - I ain't crazy
TTITLE4=Johnn Jennings/Mary Chapin Carpenter - I belong to you
TTITLE5=Alison Krauss - I give you this heart
TTITLE6=Gary Allan - I'll take today
TTITLE7=Shannon brown - I wont lie
TTITLE8=Hal Bynum - Last summer
TTITLE9=Chad Brock - Ordinary Life
TTITLE10=Tractors - Shortenin' bread
TTITLE11=Dolly Parton - The salt in my tears
TTITLE12=Jo-El Sonnier - We're here to stay
TTITLE13=Reba McEntire - Wrong night
TTITLE14=Connie Smith - Lonesome
TTITLE15=cOnnie Smith - How long
TTITLE16=Jethro and Bodean(Joe Stampley) - The dress (made him confess)
TTITLE17=Willie P Richardson - Credit card frog
EXTD=
EXTT0=
EXTT1=
EXTT2=
EXTT3=
EXTT4=
EXTT5=
EXTT6=
EXTT7=
EXTT8=
EXTT9=
EXTT10=
EXTT11=
EXTT12=
EXTT13=
EXTT14=
EXTT15=
EXTT16=
EXTT17=
PLAYORDER=
